<svg xmlns="http://www.w3.org/2000/svg" viewBox="0 0 24.00002 21.1703"><path d="M22.02092,3.39345l-.002-.00195a6.769,6.769,0,0,0-9.56087,0l-.46029.46028L11.538,3.3915a6.7609,6.7609,0,0,0-9.56136,9.56136l9.35885,9.35837a.93765.93765,0,0,0,1.32461,0L22.019,12.95286a6.75892,6.75892,0,0,0,.002-9.55941Zm-1.32657,8.2348L11.9978,20.32431,3.30125,11.62825a4.88762,4.88762,0,0,1,6.91214-6.91214l1.1221,1.12259a.93646.93646,0,0,0,1.32461,0l1.12455-1.12455a4.89284,4.89284,0,0,1,6.90677-.001l.0088.00881a4.886,4.886,0,0,1-.00587,6.90627Z" transform="translate(0.00001 -1.41485)"/></svg>